# xmcd
#
# Track frame offsets:
# 150
# 16097
# 32411
# 47404
# 63857
# 78597
# 93434
# 110167
# 125692
# 139113
# 153179
# 177994
#
# Disc length: 4440 seconds
#
#
# Revision: 11
# Processed by: cddbd v1.5.2PL0 Copyright (c) Steve Scherf et al.
# Submitted via: FreeRIP 2.96 
#
DISCID=9211560c
DTITLE=Rebelde - Ediçao Brasil
DYEAR=2005
DGENRE=Musical
TTITLE0=Rebelde
TTITLE1=Fique Em Silêncio
TTITLE2=Um Pouco Desse Amor
TTITLE3=Ensina-Me
TTITLE4=Querer-Te
TTITLE5=Quando O Amor Acaba
TTITLE6=Salve-Me
TTITLE7=Otro Día Que Va
TTITLE8=Futuro Ex-Novio
TTITLE9=Santa No Soy
TTITLE10=Fuego
TTITLE11=Extra
EXTD=
EXTT0=
EXTT1=
EXTT2=
EXTT3=
EXTT4=
EXTT5=
EXTT6=
EXTT7=
EXTT8=
EXTT9=
EXTT10=
EXTT11=
PLAYORDER=
